<svg width="742" height="428" viewBox="0 0 742 428" fill="none" xmlns="http://www.w3.org/2000/svg">
<path d="M653.591 383.381H654.023V382.948V27.6158V27.1832H653.591L86.5318 27.1832H86.0992V27.6158L86.0992 382.948V383.381H86.5318L653.591 383.381ZM668.5 398.904C668.5 407.817 661.274 415.041 652.363 415.041L88.3729 415.041C79.4603 415.041 72.2356 407.817 72.2356 398.904L72.2356 19.024C72.2356 10.1114 79.4603 2.88672 88.3729 2.88672L652.363 2.88672C661.274 2.88672 668.5 10.1114 668.5 19.024V398.904Z" fill="url(#paint0_linear_137_131)" stroke="#E0E0E0" stroke-width="0.865241"/>
<path d="M71.3706 19.0248C71.3706 9.64908 78.9974 2.02228 88.3731 2.02228L652.363 2.02228C661.74 2.02228 669.366 9.64911 669.366 19.0248V398.905C669.366 408.281 661.74 415.908 652.363 415.908L88.3731 415.908C78.9974 415.908 71.3706 408.281 71.3706 398.905L71.3706 19.0248ZM88.3731 417.497L652.363 417.497C662.613 417.497 670.955 409.157 670.955 398.905V19.0248C670.955 8.77377 662.613 0.432709 652.363 0.432709L88.3731 0.432709C78.122 0.432709 69.781 8.77374 69.781 19.0248L69.781 398.905C69.781 409.157 78.122 417.497 88.3731 417.497Z" fill="white" stroke="#E0E0E0" stroke-width="0.865241"/>
<path d="M741.349 418.767L0 418.767L0 405.886L741.349 405.886V418.767" fill="#052453"/>
<g filter="url(#filter0_i_137_131)">
<path d="M702.258 426.473C698.731 427.168 695.144 427.518 691.549 427.518L48.5658 427.518C44.8554 427.518 41.1544 427.145 37.5186 426.405L0.000243889 418.767L741.35 418.767L702.258 426.473Z" fill="#768FC8"/>
</g>
<g filter="url(#filter1_ii_137_131)">
<path d="M320.341 415.474L421.237 415.474C426.856 415.474 431.412 410.919 431.412 405.299L310.167 405.299C310.167 410.919 314.722 415.474 320.341 415.474Z" fill="url(#paint1_linear_137_131)"/>
</g>
<defs>
<filter id="filter0_i_137_131" x="0.000244141" y="415.306" width="741.349" height="12.2124" filterUnits="userSpaceOnUse" color-interpolation-filters="sRGB">
<feFlood flood-opacity="0" result="BackgroundImageFix"/>
<feBlend mode="normal" in="SourceGraphic" in2="BackgroundImageFix" result="shape"/>
<feColorMatrix in="SourceAlpha" type="matrix" values="0 0 0 0 0 0 0 0 0 0 0 0 0 0 0 0 0 0 127 0" result="hardAlpha"/>
<feOffset dy="-3.46096"/>
<feGaussianBlur stdDeviation="3.46096"/>
<feComposite in2="hardAlpha" operator="arithmetic" k2="-1" k3="1"/>
<feColorMatrix type="matrix" values="0 0 0 0 0.768627 0 0 0 0 0.768627 0 0 0 0 0.768627 0 0 0 1 0"/>
<feBlend mode="normal" in2="shape" result="effect1_innerShadow_137_131"/>
</filter>
<filter id="filter1_ii_137_131" x="310.167" y="403.568" width="121.245" height="13.6363" filterUnits="userSpaceOnUse" color-interpolation-filters="sRGB">
<feFlood flood-opacity="0" result="BackgroundImageFix"/>
<feBlend mode="normal" in="SourceGraphic" in2="BackgroundImageFix" result="shape"/>
<feColorMatrix in="SourceAlpha" type="matrix" values="0 0 0 0 0 0 0 0 0 0 0 0 0 0 0 0 0 0 127 0" result="hardAlpha"/>
<feOffset dy="1.73048"/>
<feGaussianBlur stdDeviation="0.865241"/>
<feComposite in2="hardAlpha" operator="arithmetic" k2="-1" k3="1"/>
<feColorMatrix type="matrix" values="0 0 0 0 0.95 0 0 0 0 0.95 0 0 0 0 0.95 0 0 0 1 0"/>
<feBlend mode="normal" in2="shape" result="effect1_innerShadow_137_131"/>
<feColorMatrix in="SourceAlpha" type="matrix" values="0 0 0 0 0 0 0 0 0 0 0 0 0 0 0 0 0 0 127 0" result="hardAlpha"/>
<feOffset dy="-1.73048"/>
<feGaussianBlur stdDeviation="3.46096"/>
<feComposite in2="hardAlpha" operator="arithmetic" k2="-1" k3="1"/>
<feColorMatrix type="matrix" values="0 0 0 0 0.88 0 0 0 0 0.88 0 0 0 0 0.88 0 0 0 1 0"/>
<feBlend mode="normal" in2="effect1_innerShadow_137_131" result="effect2_innerShadow_137_131"/>
</filter>
<linearGradient id="paint0_linear_137_131" x1="370.368" y1="2.4541" x2="370.368" y2="415.474" gradientUnits="userSpaceOnUse">
<stop stop-color="#768FC8"/>
<stop offset="1" stop-color="#052453"/>
</linearGradient>
<linearGradient id="paint1_linear_137_131" x1="307.309" y1="416.1" x2="435.221" y2="416.1" gradientUnits="userSpaceOnUse">
<stop stop-color="#F2F2F2"/>
<stop offset="0.13176" stop-color="white"/>
<stop offset="0.868285" stop-color="white"/>
<stop offset="1" stop-color="#F2F2F2"/>
</linearGradient>
</defs>
</svg>
