<svg width="677" height="547" viewBox="0 0 677 547" fill="none" xmlns="http://www.w3.org/2000/svg">

  <path
    d="M108.569 515.491L108.681 515.909L109.099 515.797L656.836 369.031L657.254 368.919L657.142 368.501L565.175 25.2765L565.063 24.8587L564.645 24.9706L16.9085 171.736L16.4906 171.848L16.6026 172.266L108.569 515.491ZM675.255 380.167C677.562 388.775 672.452 397.624 663.845 399.931L119.072 545.902C110.463 548.209 101.615 543.1 99.3079 534.491L0.987672 167.555C-1.31907 158.946 3.78957 150.098 12.3984 147.791L557.171 1.81975C565.779 -0.486689 574.628 4.62166 576.935 13.2305L675.255 380.167Z"
    fill="none" 
    stroke="#E0E0E0"  
    stroke-width="3" 
    stroke-linejoin="round"  
  />
  
  <path
    d="M108.569 515.491L108.681 515.909L109.099 515.797L656.836 369.031L657.254 368.919L657.142 368.501L565.175 25.2765L565.063 24.8587L564.645 24.9706L16.9085 171.736L16.4906 171.848L16.6026 172.266L108.569 515.491ZM675.255 380.167C677.562 388.775 672.452 397.624 663.845 399.931L119.072 545.902C110.463 548.209 101.615 543.1 99.3079 534.491L0.987672 167.555C-1.31907 158.946 3.78957 150.098 12.3984 147.791L557.171 1.81975C565.779 -0.486689 574.628 4.62166 576.935 13.2305L675.255 380.167Z"
    fill="url(#paint0_linear_277_1158)" 
    stroke="none" 
  />
  
  <defs>
    <linearGradient id="paint0_linear_277_1158" x1="284.673" y1="74.3876" x2="391.57" y2="473.334" gradientUnits="userSpaceOnUse">
      <stop stop-color="#768FC8" />
      <stop offset="1" stop-color="#052453" />
    </linearGradient>
  </defs>
</svg>