<svg width="682" height="552" viewBox="0 0 682 552" fill="none" xmlns="http://www.w3.org/2000/svg">
<path d="M3.15196 170.2C0.72535 161.144 6.11834 151.803 15.1746 149.376L559.947 3.40506C569.005 0.978123 578.344 6.37145 580.771 15.4277L679.091 382.364C681.518 391.42 676.126 400.761 667.069 403.187L122.296 549.159C113.24 551.586 103.899 546.192 101.472 537.136L3.15196 170.2ZM122.707 550.694L667.48 404.723C677.38 402.07 683.28 391.855 680.627 381.952L582.306 15.0162C579.653 5.11453 569.436 -0.783038 559.536 1.86965L14.7631 147.841C4.8614 150.494 -1.0366 160.71 1.61656 170.612L99.9368 537.548C102.59 547.45 112.806 553.347 122.707 550.694Z" fill="white" stroke="#E0E0E0" stroke-width="0.865241"/>
</svg>
