<svg width="603" height="418" viewBox="0 0 603 418" fill="none" xmlns="http://www.w3.org/2000/svg">
<path d="M17.0992 382.948V383.381H17.5318L584.591 383.381H585.023V382.948V27.6158V27.1832H584.591L17.5318 27.1832H17.0992V27.6158L17.0992 382.948ZM599.5 398.904C599.5 407.817 592.274 415.041 583.363 415.041L19.3729 415.041C10.4603 415.041 3.2356 407.817 3.2356 398.904L3.2356 19.024C3.2356 10.1114 10.4603 2.88672 19.3729 2.88672L583.363 2.88672C592.274 2.88672 599.5 10.1114 599.5 19.024V398.904Z" fill="url(#paint0_linear_154_45)" stroke="#E0E0E0" stroke-width="0.865241"/>
<path d="M2.37057 19.0248C2.37057 9.64908 9.99739 2.02228 19.3731 2.02228L583.363 2.02228C592.74 2.02228 600.366 9.64911 600.366 19.0248V398.905C600.366 408.281 592.74 415.908 583.363 415.908L19.3731 415.908C9.99739 415.908 2.37057 408.281 2.37057 398.905L2.37057 19.0248ZM19.3731 417.497L583.363 417.497C593.613 417.497 601.955 409.157 601.955 398.905V19.0248C601.955 8.77377 593.613 0.432709 583.363 0.432709L19.3731 0.432709C9.12204 0.432709 0.781009 8.77374 0.781009 19.0248L0.781009 398.905C0.781009 409.157 9.12203 417.497 19.3731 417.497Z" fill="white" stroke="#E0E0E0" stroke-width="0.865241"/>
<g filter="url(#filter0_ii_154_45)">
<path d="M251.341 415.474L352.237 415.474C357.856 415.474 362.412 410.919 362.412 405.299L241.167 405.299C241.167 410.919 245.722 415.474 251.341 415.474Z" fill="url(#paint1_linear_154_45)"/>
</g>
<defs>
<filter id="filter0_ii_154_45" x="241.167" y="403.568" width="121.245" height="13.6363" filterUnits="userSpaceOnUse" color-interpolation-filters="sRGB">
<feFlood flood-opacity="0" result="BackgroundImageFix"/>
<feBlend mode="normal" in="SourceGraphic" in2="BackgroundImageFix" result="shape"/>
<feColorMatrix in="SourceAlpha" type="matrix" values="0 0 0 0 0 0 0 0 0 0 0 0 0 0 0 0 0 0 127 0" result="hardAlpha"/>
<feOffset dy="1.73048"/>
<feGaussianBlur stdDeviation="0.865241"/>
<feComposite in2="hardAlpha" operator="arithmetic" k2="-1" k3="1"/>
<feColorMatrix type="matrix" values="0 0 0 0 0.95 0 0 0 0 0.95 0 0 0 0 0.95 0 0 0 1 0"/>
<feBlend mode="normal" in2="shape" result="effect1_innerShadow_154_45"/>
<feColorMatrix in="SourceAlpha" type="matrix" values="0 0 0 0 0 0 0 0 0 0 0 0 0 0 0 0 0 0 127 0" result="hardAlpha"/>
<feOffset dy="-1.73048"/>
<feGaussianBlur stdDeviation="3.46096"/>
<feComposite in2="hardAlpha" operator="arithmetic" k2="-1" k3="1"/>
<feColorMatrix type="matrix" values="0 0 0 0 0.88 0 0 0 0 0.88 0 0 0 0 0.88 0 0 0 1 0"/>
<feBlend mode="normal" in2="effect1_innerShadow_154_45" result="effect2_innerShadow_154_45"/>
</filter>
<linearGradient id="paint0_linear_154_45" x1="301.368" y1="2.4541" x2="301.368" y2="415.474" gradientUnits="userSpaceOnUse">
<stop stop-color="#768FC8"/>
<stop offset="1" stop-color="#052453"/>
</linearGradient>
<linearGradient id="paint1_linear_154_45" x1="238.309" y1="416.1" x2="366.221" y2="416.1" gradientUnits="userSpaceOnUse">
<stop stop-color="#F2F2F2"/>
<stop offset="0.13176" stop-color="white"/>
<stop offset="0.868285" stop-color="white"/>
<stop offset="1" stop-color="#F2F2F2"/>
</linearGradient>
</defs>
</svg>
