<svg width="41" height="41" viewBox="0 0 41 41" fill="none" xmlns="http://www.w3.org/2000/svg">
<path d="M31.7166 9.81207L29.5833 11.4787L20.4999 18.2287L11.4166 11.4121L9.28325 9.74541C8.78068 9.32965 8.16717 9.07047 7.51873 8.99999C6.8703 8.92951 6.21543 9.05081 5.63527 9.34888C5.0551 9.64695 4.57513 10.1087 4.25482 10.6769C3.93451 11.2451 3.78793 11.8947 3.83325 12.5454V31.8621C3.83325 32.4632 4.07206 33.0398 4.49714 33.4648C4.92223 33.8899 5.49876 34.1287 6.09992 34.1287H11.4166V21.2621L20.4999 28.0787L29.5833 21.2621V34.1287H34.8999C35.5011 34.1287 36.0776 33.8899 36.5027 33.4648C36.9278 33.0398 37.1666 32.4632 37.1666 31.8621V12.5454C37.1979 11.9003 37.0411 11.2601 36.7153 10.7024C36.3896 10.1448 35.9088 9.69382 35.3315 9.40429C34.7542 9.11476 34.1053 8.99917 33.4635 9.07157C32.8218 9.14396 32.2149 9.40122 31.7166 9.81207Z" fill="url(#paint0_linear_220_809)"/>
<path d="M31.7166 9.81207L29.5833 11.4787L20.4999 18.2287L11.4166 11.4121L9.28325 9.74541C8.78068 9.32965 8.16717 9.07047 7.51873 8.99999C6.8703 8.92951 6.21543 9.05081 5.63527 9.34888C5.0551 9.64695 4.57513 10.1087 4.25482 10.6769C3.93451 11.2451 3.78793 11.8947 3.83325 12.5454V31.8621C3.83325 32.4632 4.07206 33.0398 4.49714 33.4648C4.92223 33.8899 5.49876 34.1287 6.09992 34.1287H11.4166V21.2621L20.4999 28.0787L29.5833 21.2621V34.1287H34.8999C35.5011 34.1287 36.0776 33.8899 36.5027 33.4648C36.9278 33.0398 37.1666 32.4632 37.1666 31.8621V12.5454C37.1979 11.9003 37.0411 11.2601 36.7153 10.7024C36.3896 10.1448 35.9088 9.69382 35.3315 9.40429C34.7542 9.11476 34.1053 8.99917 33.4635 9.07157C32.8218 9.14396 32.2149 9.40122 31.7166 9.81207Z" fill="black" fill-opacity="0.2"/>
<path d="M31.7166 9.81207L29.5833 11.4787L20.4999 18.2287L11.4166 11.4121L9.28325 9.74541C8.78068 9.32965 8.16717 9.07047 7.51873 8.99999C6.8703 8.92951 6.21543 9.05081 5.63527 9.34888C5.0551 9.64695 4.57513 10.1087 4.25482 10.6769C3.93451 11.2451 3.78793 11.8947 3.83325 12.5454V31.8621C3.83325 32.4632 4.07206 33.0398 4.49714 33.4648C4.92223 33.8899 5.49876 34.1287 6.09992 34.1287H11.4166V21.2621L20.4999 28.0787L29.5833 21.2621V34.1287H34.8999C35.5011 34.1287 36.0776 33.8899 36.5027 33.4648C36.9278 33.0398 37.1666 32.4632 37.1666 31.8621V12.5454C37.1979 11.9003 37.0411 11.2601 36.7153 10.7024C36.3896 10.1448 35.9088 9.69382 35.3315 9.40429C34.7542 9.11476 34.1053 8.99917 33.4635 9.07157C32.8218 9.14396 32.2149 9.40122 31.7166 9.81207Z" fill="black" fill-opacity="0.2"/>
<defs>
<linearGradient id="paint0_linear_220_809" x1="20.4978" y1="8.98047" x2="50.1738" y2="31.9298" gradientUnits="userSpaceOnUse">
<stop stop-color="#0140A0"/>
<stop offset="1" stop-color="#00173A"/>
</linearGradient>
</defs>
</svg>
