<svg width="41" height="41" viewBox="0 0 41 41" fill="none" xmlns="http://www.w3.org/2000/svg">
<path d="M30.0847 5.79541H35.1963L24.0297 18.5037L37.1663 35.7954H26.8797L18.8247 25.3071L9.60634 35.7954H4.48967L16.4347 22.2037L3.83301 5.79541H14.3797L21.663 15.3821L30.0847 5.79541ZM28.2913 32.7487H31.1247L12.8397 8.68208H9.79967L28.2913 32.7487Z" fill="url(#paint0_linear_220_806)"/>
<path d="M30.0847 5.79541H35.1963L24.0297 18.5037L37.1663 35.7954H26.8797L18.8247 25.3071L9.60634 35.7954H4.48967L16.4347 22.2037L3.83301 5.79541H14.3797L21.663 15.3821L30.0847 5.79541ZM28.2913 32.7487H31.1247L12.8397 8.68208H9.79967L28.2913 32.7487Z" fill="black" fill-opacity="0.2"/>
<path d="M30.0847 5.79541H35.1963L24.0297 18.5037L37.1663 35.7954H26.8797L18.8247 25.3071L9.60634 35.7954H4.48967L16.4347 22.2037L3.83301 5.79541H14.3797L21.663 15.3821L30.0847 5.79541ZM28.2913 32.7487H31.1247L12.8397 8.68208H9.79967L28.2913 32.7487Z" fill="black" fill-opacity="0.2"/>
<defs>
<linearGradient id="paint0_linear_220_806" x1="20.4997" y1="5.79541" x2="53.8857" y2="27.4306" gradientUnits="userSpaceOnUse">
<stop stop-color="#0140A0"/>
<stop offset="1" stop-color="#00173A"/>
</linearGradient>
</defs>
</svg>
