<svg width="41" height="41" viewBox="0 0 41 41" fill="none" xmlns="http://www.w3.org/2000/svg">
<path d="M23.8337 23.2956H28.0003L29.667 16.6289H23.8337V13.2956C23.8337 11.5789 23.8337 9.96224 27.167 9.96224H29.667V4.36224C29.1237 4.29057 27.072 4.12891 24.9053 4.12891C20.3803 4.12891 17.167 6.89057 17.167 11.9622V16.6289H12.167V23.2956H17.167V37.4622H23.8337V23.2956Z" fill="url(#paint0_linear_220_808)"/>
<path d="M23.8337 23.2956H28.0003L29.667 16.6289H23.8337V13.2956C23.8337 11.5789 23.8337 9.96224 27.167 9.96224H29.667V4.36224C29.1237 4.29057 27.072 4.12891 24.9053 4.12891C20.3803 4.12891 17.167 6.89057 17.167 11.9622V16.6289H12.167V23.2956H17.167V37.4622H23.8337V23.2956Z" fill="black" fill-opacity="0.2"/>
<path d="M23.8337 23.2956H28.0003L29.667 16.6289H23.8337V13.2956C23.8337 11.5789 23.8337 9.96224 27.167 9.96224H29.667V4.36224C29.1237 4.29057 27.072 4.12891 24.9053 4.12891C20.3803 4.12891 17.167 6.89057 17.167 11.9622V16.6289H12.167V23.2956H17.167V37.4622H23.8337V23.2956Z" fill="black" fill-opacity="0.2"/>
<defs>
<linearGradient id="paint0_linear_220_808" x1="20.917" y1="4.12891" x2="43.6719" y2="11.0963" gradientUnits="userSpaceOnUse">
<stop stop-color="#0140A0"/>
<stop offset="1" stop-color="#00173A"/>
</linearGradient>
</defs>
</svg>
