<svg width="41" height="41" viewBox="0 0 41 41" fill="none" xmlns="http://www.w3.org/2000/svg">
<path d="M22.213 4.12891C24.088 4.13391 25.0396 4.14391 25.8613 4.16724L26.1846 4.17891C26.558 4.19224 26.9263 4.20891 27.3713 4.22891C29.1446 4.31224 30.3546 4.59224 31.4163 5.00391C32.5163 5.42724 33.443 6.00057 34.3696 6.92557C35.2175 7.75846 35.8733 8.76636 36.2913 9.87891C36.703 10.9406 36.983 12.1506 37.0663 13.9256C37.0863 14.3689 37.103 14.7372 37.1163 15.1122L37.1263 15.4356C37.1513 16.2556 37.1613 17.2072 37.1646 19.0822L37.1663 20.3256V22.5089C37.1704 23.7246 37.1576 24.9403 37.128 26.1556L37.118 26.4789C37.1046 26.8539 37.088 27.2222 37.068 27.6656C36.9846 29.4406 36.7013 30.6489 36.2913 31.7122C35.8733 32.8248 35.2175 33.8327 34.3696 34.6656C33.5368 35.5134 32.5289 36.1692 31.4163 36.5872C30.3546 36.9989 29.1446 37.2789 27.3713 37.3622L26.1846 37.4122L25.8613 37.4222C25.0396 37.4456 24.088 37.4572 22.213 37.4606L20.9696 37.4622H18.788C17.5717 37.4665 16.3555 37.4537 15.1396 37.4239L14.8163 37.4139C14.4207 37.3989 14.0251 37.3817 13.6296 37.3622C11.8563 37.2789 10.6463 36.9989 9.58298 36.5872C8.47103 36.169 7.46372 35.5132 6.63131 34.6656C5.78289 33.8328 5.12649 32.8249 4.70798 31.7122C4.29631 30.6506 4.01631 29.4406 3.93298 27.6656L3.88298 26.4789L3.87465 26.1556C3.84392 24.9403 3.83003 23.7246 3.83298 22.5089V19.0822C3.82837 17.8666 3.84059 16.6509 3.86965 15.4356L3.88131 15.1122C3.89465 14.7372 3.91131 14.3689 3.93131 13.9256C4.01465 12.1506 4.29465 10.9422 4.70631 9.87891C5.1258 8.7659 5.78335 7.75797 6.63298 6.92557C7.4649 6.07815 8.47163 5.42236 9.58298 5.00391C10.6463 4.59224 11.8546 4.31224 13.6296 4.22891C14.073 4.20891 14.443 4.19224 14.8163 4.17891L15.1396 4.16891C16.355 4.13929 17.5706 4.12652 18.7863 4.13057L22.213 4.12891ZM20.4996 12.4622C18.2895 12.4622 16.1699 13.3402 14.6071 14.903C13.0443 16.4658 12.1663 18.5854 12.1663 20.7956C12.1663 23.0057 13.0443 25.1253 14.6071 26.6881C16.1699 28.2509 18.2895 29.1289 20.4996 29.1289C22.7098 29.1289 24.8294 28.2509 26.3922 26.6881C27.955 25.1253 28.833 23.0057 28.833 20.7956C28.833 18.5854 27.955 16.4658 26.3922 14.903C24.8294 13.3402 22.7098 12.4622 20.4996 12.4622ZM20.4996 15.7956C21.1563 15.7955 21.8065 15.9247 22.4131 16.1759C23.0198 16.427 23.5711 16.7952 24.0354 17.2594C24.4998 17.7237 24.8682 18.2748 25.1196 18.8814C25.3709 19.488 25.5004 20.1381 25.5005 20.7947C25.5006 21.4513 25.3714 22.1016 25.1202 22.7082C24.869 23.3149 24.5008 23.8661 24.0366 24.3305C23.5724 24.7949 23.0213 25.1633 22.4147 25.4147C21.8081 25.666 21.1579 25.7955 20.5013 25.7956C19.1752 25.7956 17.9035 25.2688 16.9658 24.3311C16.0281 23.3934 15.5013 22.1217 15.5013 20.7956C15.5013 19.4695 16.0281 18.1977 16.9658 17.26C17.9035 16.3224 19.1752 15.7956 20.5013 15.7956M29.2513 9.96224C28.6988 9.96224 28.1689 10.1817 27.7782 10.5724C27.3875 10.9631 27.168 11.493 27.168 12.0456C27.168 12.5981 27.3875 13.128 27.7782 13.5187C28.1689 13.9094 28.6988 14.1289 29.2513 14.1289C29.8038 14.1289 30.3337 13.9094 30.7245 13.5187C31.1152 13.128 31.3346 12.5981 31.3346 12.0456C31.3346 11.493 31.1152 10.9631 30.7245 10.5724C30.3337 10.1817 29.8038 9.96224 29.2513 9.96224Z" fill="url(#paint0_linear_220_807)"/>
<path d="M22.213 4.12891C24.088 4.13391 25.0396 4.14391 25.8613 4.16724L26.1846 4.17891C26.558 4.19224 26.9263 4.20891 27.3713 4.22891C29.1446 4.31224 30.3546 4.59224 31.4163 5.00391C32.5163 5.42724 33.443 6.00057 34.3696 6.92557C35.2175 7.75846 35.8733 8.76636 36.2913 9.87891C36.703 10.9406 36.983 12.1506 37.0663 13.9256C37.0863 14.3689 37.103 14.7372 37.1163 15.1122L37.1263 15.4356C37.1513 16.2556 37.1613 17.2072 37.1646 19.0822L37.1663 20.3256V22.5089C37.1704 23.7246 37.1576 24.9403 37.128 26.1556L37.118 26.4789C37.1046 26.8539 37.088 27.2222 37.068 27.6656C36.9846 29.4406 36.7013 30.6489 36.2913 31.7122C35.8733 32.8248 35.2175 33.8327 34.3696 34.6656C33.5368 35.5134 32.5289 36.1692 31.4163 36.5872C30.3546 36.9989 29.1446 37.2789 27.3713 37.3622L26.1846 37.4122L25.8613 37.4222C25.0396 37.4456 24.088 37.4572 22.213 37.4606L20.9696 37.4622H18.788C17.5717 37.4665 16.3555 37.4537 15.1396 37.4239L14.8163 37.4139C14.4207 37.3989 14.0251 37.3817 13.6296 37.3622C11.8563 37.2789 10.6463 36.9989 9.58298 36.5872C8.47103 36.169 7.46372 35.5132 6.63131 34.6656C5.78289 33.8328 5.12649 32.8249 4.70798 31.7122C4.29631 30.6506 4.01631 29.4406 3.93298 27.6656L3.88298 26.4789L3.87465 26.1556C3.84392 24.9403 3.83003 23.7246 3.83298 22.5089V19.0822C3.82837 17.8666 3.84059 16.6509 3.86965 15.4356L3.88131 15.1122C3.89465 14.7372 3.91131 14.3689 3.93131 13.9256C4.01465 12.1506 4.29465 10.9422 4.70631 9.87891C5.1258 8.7659 5.78335 7.75797 6.63298 6.92557C7.4649 6.07815 8.47163 5.42236 9.58298 5.00391C10.6463 4.59224 11.8546 4.31224 13.6296 4.22891C14.073 4.20891 14.443 4.19224 14.8163 4.17891L15.1396 4.16891C16.355 4.13929 17.5706 4.12652 18.7863 4.13057L22.213 4.12891ZM20.4996 12.4622C18.2895 12.4622 16.1699 13.3402 14.6071 14.903C13.0443 16.4658 12.1663 18.5854 12.1663 20.7956C12.1663 23.0057 13.0443 25.1253 14.6071 26.6881C16.1699 28.2509 18.2895 29.1289 20.4996 29.1289C22.7098 29.1289 24.8294 28.2509 26.3922 26.6881C27.955 25.1253 28.833 23.0057 28.833 20.7956C28.833 18.5854 27.955 16.4658 26.3922 14.903C24.8294 13.3402 22.7098 12.4622 20.4996 12.4622ZM20.4996 15.7956C21.1563 15.7955 21.8065 15.9247 22.4131 16.1759C23.0198 16.427 23.5711 16.7952 24.0354 17.2594C24.4998 17.7237 24.8682 18.2748 25.1196 18.8814C25.3709 19.488 25.5004 20.1381 25.5005 20.7947C25.5006 21.4513 25.3714 22.1016 25.1202 22.7082C24.869 23.3149 24.5008 23.8661 24.0366 24.3305C23.5724 24.7949 23.0213 25.1633 22.4147 25.4147C21.8081 25.666 21.1579 25.7955 20.5013 25.7956C19.1752 25.7956 17.9035 25.2688 16.9658 24.3311C16.0281 23.3934 15.5013 22.1217 15.5013 20.7956C15.5013 19.4695 16.0281 18.1977 16.9658 17.26C17.9035 16.3224 19.1752 15.7956 20.5013 15.7956M29.2513 9.96224C28.6988 9.96224 28.1689 10.1817 27.7782 10.5724C27.3875 10.9631 27.168 11.493 27.168 12.0456C27.168 12.5981 27.3875 13.128 27.7782 13.5187C28.1689 13.9094 28.6988 14.1289 29.2513 14.1289C29.8038 14.1289 30.3337 13.9094 30.7245 13.5187C31.1152 13.128 31.3346 12.5981 31.3346 12.0456C31.3346 11.493 31.1152 10.9631 30.7245 10.5724C30.3337 10.1817 29.8038 9.96224 29.2513 9.96224Z" fill="black" fill-opacity="0.2"/>
<path d="M22.213 4.12891C24.088 4.13391 25.0396 4.14391 25.8613 4.16724L26.1846 4.17891C26.558 4.19224 26.9263 4.20891 27.3713 4.22891C29.1446 4.31224 30.3546 4.59224 31.4163 5.00391C32.5163 5.42724 33.443 6.00057 34.3696 6.92557C35.2175 7.75846 35.8733 8.76636 36.2913 9.87891C36.703 10.9406 36.983 12.1506 37.0663 13.9256C37.0863 14.3689 37.103 14.7372 37.1163 15.1122L37.1263 15.4356C37.1513 16.2556 37.1613 17.2072 37.1646 19.0822L37.1663 20.3256V22.5089C37.1704 23.7246 37.1576 24.9403 37.128 26.1556L37.118 26.4789C37.1046 26.8539 37.088 27.2222 37.068 27.6656C36.9846 29.4406 36.7013 30.6489 36.2913 31.7122C35.8733 32.8248 35.2175 33.8327 34.3696 34.6656C33.5368 35.5134 32.5289 36.1692 31.4163 36.5872C30.3546 36.9989 29.1446 37.2789 27.3713 37.3622L26.1846 37.4122L25.8613 37.4222C25.0396 37.4456 24.088 37.4572 22.213 37.4606L20.9696 37.4622H18.788C17.5717 37.4665 16.3555 37.4537 15.1396 37.4239L14.8163 37.4139C14.4207 37.3989 14.0251 37.3817 13.6296 37.3622C11.8563 37.2789 10.6463 36.9989 9.58298 36.5872C8.47103 36.169 7.46372 35.5132 6.63131 34.6656C5.78289 33.8328 5.12649 32.8249 4.70798 31.7122C4.29631 30.6506 4.01631 29.4406 3.93298 27.6656L3.88298 26.4789L3.87465 26.1556C3.84392 24.9403 3.83003 23.7246 3.83298 22.5089V19.0822C3.82837 17.8666 3.84059 16.6509 3.86965 15.4356L3.88131 15.1122C3.89465 14.7372 3.91131 14.3689 3.93131 13.9256C4.01465 12.1506 4.29465 10.9422 4.70631 9.87891C5.1258 8.7659 5.78335 7.75797 6.63298 6.92557C7.4649 6.07815 8.47163 5.42236 9.58298 5.00391C10.6463 4.59224 11.8546 4.31224 13.6296 4.22891C14.073 4.20891 14.443 4.19224 14.8163 4.17891L15.1396 4.16891C16.355 4.13929 17.5706 4.12652 18.7863 4.13057L22.213 4.12891ZM20.4996 12.4622C18.2895 12.4622 16.1699 13.3402 14.6071 14.903C13.0443 16.4658 12.1663 18.5854 12.1663 20.7956C12.1663 23.0057 13.0443 25.1253 14.6071 26.6881C16.1699 28.2509 18.2895 29.1289 20.4996 29.1289C22.7098 29.1289 24.8294 28.2509 26.3922 26.6881C27.955 25.1253 28.833 23.0057 28.833 20.7956C28.833 18.5854 27.955 16.4658 26.3922 14.903C24.8294 13.3402 22.7098 12.4622 20.4996 12.4622ZM20.4996 15.7956C21.1563 15.7955 21.8065 15.9247 22.4131 16.1759C23.0198 16.427 23.5711 16.7952 24.0354 17.2594C24.4998 17.7237 24.8682 18.2748 25.1196 18.8814C25.3709 19.488 25.5004 20.1381 25.5005 20.7947C25.5006 21.4513 25.3714 22.1016 25.1202 22.7082C24.869 23.3149 24.5008 23.8661 24.0366 24.3305C23.5724 24.7949 23.0213 25.1633 22.4147 25.4147C21.8081 25.666 21.1579 25.7955 20.5013 25.7956C19.1752 25.7956 17.9035 25.2688 16.9658 24.3311C16.0281 23.3934 15.5013 22.1217 15.5013 20.7956C15.5013 19.4695 16.0281 18.1977 16.9658 17.26C17.9035 16.3224 19.1752 15.7956 20.5013 15.7956M29.2513 9.96224C28.6988 9.96224 28.1689 10.1817 27.7782 10.5724C27.3875 10.9631 27.168 11.493 27.168 12.0456C27.168 12.5981 27.3875 13.128 27.7782 13.5187C28.1689 13.9094 28.6988 14.1289 29.2513 14.1289C29.8038 14.1289 30.3337 13.9094 30.7245 13.5187C31.1152 13.128 31.3346 12.5981 31.3346 12.0456C31.3346 11.493 31.1152 10.9631 30.7245 10.5724C30.3337 10.1817 29.8038 9.96224 29.2513 9.96224Z" fill="black" fill-opacity="0.2"/>
<defs>
<linearGradient id="paint0_linear_220_807" x1="20.4995" y1="4.12891" x2="55.8746" y2="24.7612" gradientUnits="userSpaceOnUse">
<stop stop-color="#0140A0"/>
<stop offset="1" stop-color="#00173A"/>
</linearGradient>
</defs>
</svg>
