<svg width="41" height="41" viewBox="0 0 41 41" fill="none" xmlns="http://www.w3.org/2000/svg">
<path d="M12.0671 9.12895C12.0666 10.013 11.715 10.8607 11.0896 11.4855C10.4641 12.1103 9.61611 12.4611 8.73206 12.4606C7.848 12.4602 7.00033 12.1086 6.37552 11.4831C5.75071 10.8577 5.39995 10.0097 5.40039 9.12561C5.40083 8.24156 5.75245 7.39389 6.37788 6.76908C7.00331 6.14427 7.85134 5.7935 8.73539 5.79395C9.61945 5.79439 10.4671 6.146 11.0919 6.77143C11.7167 7.39687 12.0675 8.24489 12.0671 9.12895ZM12.1671 14.9289H5.50039V35.7956H12.1671V14.9289ZM22.7004 14.9289H16.0671V35.7956H22.6337V24.8456C22.6337 18.7456 30.5837 18.1789 30.5837 24.8456V35.7956H37.1671V22.5789C37.1671 12.2956 25.4004 12.6789 22.6337 17.7289L22.7004 14.9289Z" fill="url(#paint0_linear_220_805)"/>
<path d="M12.0671 9.12895C12.0666 10.013 11.715 10.8607 11.0896 11.4855C10.4641 12.1103 9.61611 12.4611 8.73206 12.4606C7.848 12.4602 7.00033 12.1086 6.37552 11.4831C5.75071 10.8577 5.39995 10.0097 5.40039 9.12561C5.40083 8.24156 5.75245 7.39389 6.37788 6.76908C7.00331 6.14427 7.85134 5.7935 8.73539 5.79395C9.61945 5.79439 10.4671 6.146 11.0919 6.77143C11.7167 7.39687 12.0675 8.24489 12.0671 9.12895ZM12.1671 14.9289H5.50039V35.7956H12.1671V14.9289ZM22.7004 14.9289H16.0671V35.7956H22.6337V24.8456C22.6337 18.7456 30.5837 18.1789 30.5837 24.8456V35.7956H37.1671V22.5789C37.1671 12.2956 25.4004 12.6789 22.6337 17.7289L22.7004 14.9289Z" fill="black" fill-opacity="0.2"/>
<path d="M12.0671 9.12895C12.0666 10.013 11.715 10.8607 11.0896 11.4855C10.4641 12.1103 9.61611 12.4611 8.73206 12.4606C7.848 12.4602 7.00033 12.1086 6.37552 11.4831C5.75071 10.8577 5.39995 10.0097 5.40039 9.12561C5.40083 8.24156 5.75245 7.39389 6.37788 6.76908C7.00331 6.14427 7.85134 5.7935 8.73539 5.79395C9.61945 5.79439 10.4671 6.146 11.0919 6.77143C11.7167 7.39687 12.0675 8.24489 12.0671 9.12895ZM12.1671 14.9289H5.50039V35.7956H12.1671V14.9289ZM22.7004 14.9289H16.0671V35.7956H22.6337V24.8456C22.6337 18.7456 30.5837 18.1789 30.5837 24.8456V35.7956H37.1671V22.5789C37.1671 12.2956 25.4004 12.6789 22.6337 17.7289L22.7004 14.9289Z" fill="black" fill-opacity="0.2"/>
<defs>
<linearGradient id="paint0_linear_220_805" x1="21.2837" y1="5.79395" x2="53.9894" y2="25.991" gradientUnits="userSpaceOnUse">
<stop stop-color="#0140A0"/>
<stop offset="1" stop-color="#00173A"/>
</linearGradient>
</defs>
</svg>
