<svg width="41" height="40" viewBox="0 0 41 40" fill="none" xmlns="http://www.w3.org/2000/svg">
<g id="guidance:left-arrow" clip-path="url(#clip0_526_247)">
<g id="Vector">
<path d="M26.7731 8.3335C26.7731 9.57016 27.9948 11.4168 29.2314 12.9668C30.8214 14.9668 32.7214 16.7118 34.8998 18.0435C36.5331 19.0418 38.5131 20.0002 40.1064 20.0002M40.1064 20.0002C38.5131 20.0002 36.5314 20.9585 34.8998 21.9568C32.7214 23.2902 30.8214 25.0352 29.2314 27.0318C27.9948 28.5835 26.7731 30.4335 26.7731 31.6668M40.1064 20.0002H0.106445" stroke="url(#paint0_linear_526_247)" stroke-width="4"/>
<path d="M26.7731 8.3335C26.7731 9.57016 27.9948 11.4168 29.2314 12.9668C30.8214 14.9668 32.7214 16.7118 34.8998 18.0435C36.5331 19.0418 38.5131 20.0002 40.1064 20.0002M40.1064 20.0002C38.5131 20.0002 36.5314 20.9585 34.8998 21.9568C32.7214 23.2902 30.8214 25.0352 29.2314 27.0318C27.9948 28.5835 26.7731 30.4335 26.7731 31.6668M40.1064 20.0002H0.106445" stroke="black" stroke-opacity="0.2" stroke-width="4"/>
<path d="M26.7731 8.3335C26.7731 9.57016 27.9948 11.4168 29.2314 12.9668C30.8214 14.9668 32.7214 16.7118 34.8998 18.0435C36.5331 19.0418 38.5131 20.0002 40.1064 20.0002M40.1064 20.0002C38.5131 20.0002 36.5314 20.9585 34.8998 21.9568C32.7214 23.2902 30.8214 25.0352 29.2314 27.0318C27.9948 28.5835 26.7731 30.4335 26.7731 31.6668M40.1064 20.0002H0.106445" stroke="black" stroke-opacity="0.2" stroke-width="4"/>
</g>
</g>
<defs>
<linearGradient id="paint0_linear_526_247" x1="20.1064" y1="8.3335" x2="48.5554" y2="36.7773" gradientUnits="userSpaceOnUse">
<stop stop-color="#0140A0"/>
<stop offset="1" stop-color="#00173A"/>
</linearGradient>
<clipPath id="clip0_526_247">
<rect width="40" height="40" fill="white" transform="translate(0.106445)"/>
</clipPath>
</defs>
</svg>
