<svg width="498" height="488" viewBox="0 0 498 488" fill="none" xmlns="http://www.w3.org/2000/svg">
<path d="M366.156 487.178L450.036 433.8C454.134 431.192 458.019 428.265 461.655 425.044L471.405 416.408C496.331 394.331 503.654 358.433 489.368 328.357V328.357C484.766 318.669 478.134 310.084 469.922 303.186L451.767 287.936C418.675 260.139 376.841 244.9 333.623 244.9L288.308 244.9C269.31 244.9 250.354 243.143 231.68 239.651L137.895 222.114C87.6033 212.71 44.2327 181.131 19.84 136.157L13.9133 125.23C8.68442 115.589 5.12801 105.132 3.39525 94.3023L1.61117 83.152C-3.63108 50.3883 11.7658 17.7645 40.3904 0.984377V0.984377" stroke="#052453" stroke-dasharray="12 12"/>
</svg>
