<svg width="882" height="731" viewBox="0 0 882 731" fill="none" xmlns="http://www.w3.org/2000/svg">
<g filter="url(#filter0_d_56_84)">
<path d="M417.353 140.428C429.333 133.564 448.757 133.564 460.737 140.428L535.768 183.416L441.947 237.169L345.225 181.753L417.353 140.428Z" fill="url(#paint0_linear_56_84)"/>
<path d="M345.225 181.753L441.947 237.169V348L366.917 305.012C354.936 298.149 345.225 281.391 345.225 267.584V181.753Z" fill="url(#paint1_linear_56_84)"/>
<path d="M441.947 237.169L535.768 183.416V269.247C535.768 283.054 526.056 299.811 514.076 306.675L441.947 348V237.169Z" fill="url(#paint2_linear_56_84)"/>
<path d="M418.361 32.4281C430.341 25.5642 449.765 25.5642 461.745 32.4281L536.775 75.4156L442.955 129.169L346.232 73.7531L418.361 32.4281Z" fill="url(#paint3_linear_56_84)"/>
<path d="M346.232 73.7531L442.955 129.169V240L367.924 197.012C355.944 190.149 346.232 173.391 346.232 159.584V73.7531Z" fill="url(#paint4_linear_56_84)"/>
<path d="M442.955 129.169L536.775 75.4156V161.247C536.775 175.054 527.064 191.811 515.083 198.675L442.955 240V129.169Z" fill="url(#paint5_linear_56_84)"/>
<path d="M533.77 183L630.492 238.416L536.671 292.169L439.949 236.753L533.77 183Z" fill="url(#paint6_linear_56_84)"/>
<path d="M439.949 236.753L536.671 292.169V403L461.641 360.013C449.661 353.149 439.949 336.392 439.949 322.584V236.753Z" fill="url(#paint7_linear_56_84)"/>
<path d="M536.672 292.169L630.492 238.416V324.247C630.492 338.054 620.78 354.811 608.8 361.675L536.672 403V292.169Z" fill="url(#paint8_linear_56_84)"/>
<path d="M534.778 75L631.5 130.416L537.679 184.169L440.957 128.753L534.778 75Z" fill="url(#paint9_linear_56_84)"/>
<path d="M440.957 128.753L537.679 184.169V295L462.649 252.012C450.669 245.149 440.957 228.391 440.957 214.584V128.753Z" fill="url(#paint10_linear_56_84)"/>
<path d="M537.679 184.169L631.5 130.416V216.247C631.5 230.054 621.788 246.811 609.808 253.675L537.679 295V184.169Z" fill="url(#paint11_linear_56_84)"/>
<path d="M344.321 182L441.043 237.416L347.222 291.169L250.5 235.753L344.321 182Z" fill="url(#paint12_linear_56_84)"/>
<path d="M250.5 235.753L347.222 291.169V402L272.192 359.013C260.212 352.149 250.5 335.392 250.5 321.584V235.753Z" fill="url(#paint13_linear_56_84)"/>
<path d="M347.222 291.169L441.043 237.416V323.247C441.043 337.054 431.331 353.811 419.351 360.675L347.222 402V291.169Z" fill="url(#paint14_linear_56_84)"/>
<path d="M345.328 74L442.051 129.416L348.23 183.169L251.508 127.753L345.328 74Z" fill="url(#paint15_linear_56_84)"/>
<path d="M251.508 127.753L348.23 183.169V294L251.508 238.584V127.753Z" fill="url(#paint16_linear_56_84)"/>
<path d="M348.23 183.169L442.051 129.416V215.247C442.051 229.054 432.339 245.811 420.359 252.675L348.23 294V183.169Z" fill="url(#paint17_linear_56_84)"/>
<path d="M439.045 236L535.768 291.416L441.947 345.169L345.225 289.753L439.045 236Z" fill="url(#paint18_linear_56_84)"/>
<path d="M345.225 289.753L441.947 345.169V456L345.225 400.584V289.753Z" fill="url(#paint19_linear_56_84)"/>
<path d="M441.947 345.169L535.768 291.416V377.247C535.768 391.054 526.056 407.811 514.076 414.675L441.947 456V345.169Z" fill="url(#paint20_linear_56_84)"/>
<path d="M440.053 128L536.775 183.416L442.955 237.169L346.232 181.753L440.053 128Z" fill="url(#paint21_linear_56_84)"/>
<path d="M346.232 181.753L442.955 237.169V348L346.232 292.584V181.753Z" fill="url(#paint22_linear_56_84)"/>
<path d="M442.955 237.169L536.775 183.416V294.247L442.955 348V237.169Z" fill="url(#paint23_linear_56_84)"/>
</g>
<defs>
<filter id="filter0_d_56_84" x="0.499985" y="-205" width="881" height="936" filterUnits="userSpaceOnUse" color-interpolation-filters="sRGB">
<feFlood flood-opacity="0" result="BackgroundImageFix"/>
<feColorMatrix in="SourceAlpha" type="matrix" values="0 0 0 0 0 0 0 0 0 0 0 0 0 0 0 0 0 0 127 0" result="hardAlpha"/>
<feOffset dy="25"/>
<feGaussianBlur stdDeviation="125"/>
<feComposite in2="hardAlpha" operator="out"/>
<feColorMatrix type="matrix" values="0 0 0 0 0.00392157 0 0 0 0 0.25098 0 0 0 0 0.627451 0 0 0 1 0"/>
<feBlend mode="normal" in2="BackgroundImageFix" result="effect1_dropShadow_56_84"/>
<feBlend mode="normal" in="SourceGraphic" in2="effect1_dropShadow_56_84" result="shape"/>
</filter>
<linearGradient id="paint0_linear_56_84" x1="441.886" y1="237.161" x2="439.387" y2="127.967" gradientUnits="userSpaceOnUse">
<stop stop-color="#052453"/>
<stop offset="1" stop-color="#0140A0"/>
</linearGradient>
<linearGradient id="paint1_linear_56_84" x1="345.225" y1="181.753" x2="464.86" y2="200.314" gradientUnits="userSpaceOnUse">
<stop stop-color="#0148B5"/>
<stop offset="1" stop-color="#052453"/>
</linearGradient>
<linearGradient id="paint2_linear_56_84" x1="441.947" y1="237.067" x2="527.732" y2="226.893" gradientUnits="userSpaceOnUse">
<stop stop-color="#052453"/>
<stop offset="1" stop-color="#0140A0"/>
</linearGradient>
<linearGradient id="paint3_linear_56_84" x1="442.894" y1="129.161" x2="440.394" y2="19.9672" gradientUnits="userSpaceOnUse">
<stop stop-color="#052453"/>
<stop offset="1" stop-color="#0140A0"/>
</linearGradient>
<linearGradient id="paint4_linear_56_84" x1="346.232" y1="73.7531" x2="465.868" y2="92.3142" gradientUnits="userSpaceOnUse">
<stop stop-color="#0148B5"/>
<stop offset="1" stop-color="#052453"/>
</linearGradient>
<linearGradient id="paint5_linear_56_84" x1="442.955" y1="129.067" x2="528.74" y2="118.893" gradientUnits="userSpaceOnUse">
<stop stop-color="#052453"/>
<stop offset="1" stop-color="#0140A0"/>
</linearGradient>
<linearGradient id="paint6_linear_56_84" x1="536.611" y1="292.161" x2="534.111" y2="182.967" gradientUnits="userSpaceOnUse">
<stop stop-color="#052453"/>
<stop offset="1" stop-color="#0140A0"/>
</linearGradient>
<linearGradient id="paint7_linear_56_84" x1="439.949" y1="236.753" x2="559.584" y2="255.314" gradientUnits="userSpaceOnUse">
<stop stop-color="#0148B5"/>
<stop offset="1" stop-color="#052453"/>
</linearGradient>
<linearGradient id="paint8_linear_56_84" x1="536.671" y1="292.067" x2="622.457" y2="281.893" gradientUnits="userSpaceOnUse">
<stop stop-color="#052453"/>
<stop offset="1" stop-color="#0140A0"/>
</linearGradient>
<linearGradient id="paint9_linear_56_84" x1="537.618" y1="184.161" x2="535.119" y2="74.9672" gradientUnits="userSpaceOnUse">
<stop stop-color="#052453"/>
<stop offset="1" stop-color="#0140A0"/>
</linearGradient>
<linearGradient id="paint10_linear_56_84" x1="440.957" y1="128.753" x2="560.592" y2="147.314" gradientUnits="userSpaceOnUse">
<stop stop-color="#0148B5"/>
<stop offset="1" stop-color="#052453"/>
</linearGradient>
<linearGradient id="paint11_linear_56_84" x1="537.679" y1="184.067" x2="623.465" y2="173.893" gradientUnits="userSpaceOnUse">
<stop stop-color="#052453"/>
<stop offset="1" stop-color="#0140A0"/>
</linearGradient>
<linearGradient id="paint12_linear_56_84" x1="347.162" y1="291.161" x2="344.662" y2="181.967" gradientUnits="userSpaceOnUse">
<stop stop-color="#052453"/>
<stop offset="1" stop-color="#0140A0"/>
</linearGradient>
<linearGradient id="paint13_linear_56_84" x1="250.5" y1="235.753" x2="370.135" y2="254.314" gradientUnits="userSpaceOnUse">
<stop stop-color="#0148B5"/>
<stop offset="1" stop-color="#052453"/>
</linearGradient>
<linearGradient id="paint14_linear_56_84" x1="347.222" y1="291.067" x2="433.008" y2="280.893" gradientUnits="userSpaceOnUse">
<stop stop-color="#052453"/>
<stop offset="1" stop-color="#0140A0"/>
</linearGradient>
<linearGradient id="paint15_linear_56_84" x1="348.169" y1="183.161" x2="345.67" y2="73.9672" gradientUnits="userSpaceOnUse">
<stop stop-color="#052453"/>
<stop offset="1" stop-color="#0140A0"/>
</linearGradient>
<linearGradient id="paint16_linear_56_84" x1="251.508" y1="127.753" x2="371.143" y2="146.314" gradientUnits="userSpaceOnUse">
<stop stop-color="#0148B5"/>
<stop offset="1" stop-color="#052453"/>
</linearGradient>
<linearGradient id="paint17_linear_56_84" x1="348.23" y1="183.067" x2="434.015" y2="172.893" gradientUnits="userSpaceOnUse">
<stop stop-color="#052453"/>
<stop offset="1" stop-color="#0140A0"/>
</linearGradient>
<linearGradient id="paint18_linear_56_84" x1="441.886" y1="345.161" x2="439.387" y2="235.967" gradientUnits="userSpaceOnUse">
<stop stop-color="#052453"/>
<stop offset="1" stop-color="#0140A0"/>
</linearGradient>
<linearGradient id="paint19_linear_56_84" x1="345.225" y1="289.753" x2="464.86" y2="308.314" gradientUnits="userSpaceOnUse">
<stop stop-color="#0148B5"/>
<stop offset="1" stop-color="#052453"/>
</linearGradient>
<linearGradient id="paint20_linear_56_84" x1="441.947" y1="345.067" x2="527.732" y2="334.893" gradientUnits="userSpaceOnUse">
<stop stop-color="#052453"/>
<stop offset="1" stop-color="#0140A0"/>
</linearGradient>
<linearGradient id="paint21_linear_56_84" x1="442.894" y1="237.161" x2="440.394" y2="127.967" gradientUnits="userSpaceOnUse">
<stop stop-color="#052453"/>
<stop offset="1" stop-color="#0140A0"/>
</linearGradient>
<linearGradient id="paint22_linear_56_84" x1="346.232" y1="181.753" x2="465.868" y2="200.314" gradientUnits="userSpaceOnUse">
<stop stop-color="#0148B5"/>
<stop offset="1" stop-color="#052453"/>
</linearGradient>
<linearGradient id="paint23_linear_56_84" x1="442.955" y1="237.067" x2="528.74" y2="226.893" gradientUnits="userSpaceOnUse">
<stop stop-color="#052453"/>
<stop offset="1" stop-color="#0140A0"/>
</linearGradient>
</defs>
</svg>
