<svg width="677" height="547" viewBox="0 0 677 547" fill="none" xmlns="http://www.w3.org/2000/svg">
<path d="M108.569 514.911L108.681 515.329L109.099 515.217L656.836 368.452L657.254 368.34L657.142 367.922L565.175 24.6972L565.063 24.2793L564.645 24.3913L16.9085 171.157L16.4907 171.269L16.6026 171.687L108.569 514.911ZM675.255 379.587C677.562 388.196 672.452 397.045 663.845 399.351L119.072 545.323C110.463 547.629 101.615 542.521 99.308 533.912L0.987733 166.976C-1.31901 158.367 3.78964 149.519 12.3985 147.212L557.171 1.2404C565.779 -1.06603 574.628 4.04231 576.935 12.6512L675.255 379.587Z" fill="url(#paint0_linear_471_215)" stroke="#E0E0E0" stroke-width="0.865241"/>
<defs>
<linearGradient id="paint0_linear_471_215" x1="284.673" y1="73.8082" x2="391.57" y2="472.755" gradientUnits="userSpaceOnUse">
<stop stop-color="#768FC8"/>
<stop offset="1" stop-color="#052453"/>
</linearGradient>
</defs>
</svg>
