<svg width="1514" height="619" viewBox="0 0 1514 619" fill="none" xmlns="http://www.w3.org/2000/svg">
<path d="M1513.5 618.11H1452.58C1413.34 618.11 1377.39 596.159 1359.47 561.249V561.249C1348.28 539.471 1329.82 522.302 1307.29 512.727L1281.16 501.62C1256.84 491.286 1235.05 475.814 1217.28 456.265L1204.79 442.525C1168.27 402.357 1114.11 383.074 1060.43 391.126V391.126C1052.45 392.323 1044.39 392.924 1036.32 392.924H899.098C877.952 392.924 856.852 390.963 836.069 387.066L815.951 383.294C798.061 379.94 780.727 374.109 764.447 365.969V365.969C723.373 345.432 676.388 339.979 631.702 350.562L630.507 350.845C615.459 354.409 600.047 356.209 584.583 356.209H494.242C465.677 356.209 437.238 352.44 409.659 344.998L386.835 338.839C328.766 323.17 277.965 287.771 243.156 238.721V238.721L218.679 209.349L196.361 178.104C178.629 153.28 159.052 129.827 137.796 107.945L109.055 78.3591C94.0767 62.9404 77.291 49.3874 59.0623 37.9945V37.9945C38.2938 25.0141 15.8377 14.9536 -7.67388 8.09616L-30.9827 1.29785" stroke="#052453" stroke-dasharray="16 16"/>
</svg>
